<?xml version="1.0" standalone="no"?>
<!DOCTYPE svg PUBLIC "-//W3C//DTD SVG 20010904//EN"
 "http://www.w3.org/TR/2001/REC-SVG-20010904/DTD/svg10.dtd">
<svg version="1.0" xmlns="http://www.w3.org/2000/svg"
 width="6251.000000pt" height="4168.000000pt" viewBox="0 0 6251.000000 4168.000000"
 preserveAspectRatio="xMidYMid meet">

<g transform="translate(0.000000,4168.000000) scale(0.100000,-0.100000)"
fill="#000000" stroke="none">
<path d="M19595 30799 c-419 -56 -739 -278 -891 -615 -48 -109 -46 -106 -100
-138 -140 -82 -260 -209 -324 -341 -47 -98 -60 -159 -60 -279 0 -153 49 -302
158 -476 37 -60 141 -198 182 -244 5 -5 30 2 57 15 67 33 160 30 273 -6 114
-37 183 -68 207 -94 24 -26 27 -23 72 66 54 108 99 295 117 479 l6 71 61 -19
c97 -30 222 -48 332 -48 269 0 484 93 700 301 l90 87 67 -63 c169 -157 432
-226 648 -171 234 59 419 249 501 516 33 105 33 280 1 393 -42 149 -135 298
-235 378 -195 155 -431 170 -684 43 l-92 -46 -138 56 c-142 57 -271 93 -428
122 -107 19 -418 27 -520 13z"/>
<path d="M11378 29694 c-43 -98 -90 -394 -124 -785 -10 -108 -15 -203 -11
-212 13 -34 215 -42 327 -13 98 25 201 76 195 95 -2 9 -27 100 -54 202 -127
473 -232 749 -290 757 -17 3 -26 -6 -43 -44z"/>
<path d="M20710 29094 c-64 -28 -139 -116 -126 -150 8 -21 25 -17 64 17 73 64
168 79 260 39 77 -33 97 -8 40 48 -63 60 -162 79 -238 46z"/>
<path d="M19876 29015 c-56 -20 -107 -64 -136 -118 -19 -36 -22 -49 -13 -58 9
-9 21 -4 54 25 105 95 240 103 369 21 39 -24 44 -25 58 -11 15 14 11 21 -39
69 -84 81 -193 108 -293 72z"/>
<path d="M20785 28858 c-96 -76 -59 -272 52 -272 72 0 128 103 105 192 -23 89
-98 127 -157 80z"/>
<path d="M19947 28739 c-25 -15 -47 -70 -47 -116 1 -81 65 -163 127 -163 13 0
37 13 54 28 59 53 50 172 -17 232 -37 32 -82 39 -117 19z"/>
<path d="M17375 24628 c-10 -64 -45 -572 -55 -801 -5 -128 -12 -266 -15 -307
-13 -172 -36 -800 -42 -1142 -6 -364 -6 -368 14 -368 18 0 21 9 27 88 59 766
97 1519 112 2245 l7 317 -21 0 c-16 0 -22 -8 -27 -32z"/>
<path d="M22997 24622 c-16 -3 -17 -12 -12 -70 58 -666 84 -914 156 -1487 50
-398 112 -811 123 -822 3 -3 12 -3 20 0 10 4 14 16 11 39 -3 18 -12 134 -21
258 -35 499 -176 1681 -243 2033 -10 55 -10 55 -34 49z"/>
<path d="M11335 20532 c-72 -68 -184 -129 -309 -168 l-88 -27 5 -51 c3 -28 20
-217 37 -421 17 -203 33 -381 36 -394 4 -17 40 81 116 310 122 367 266 809
264 809 0 -1 -28 -27 -61 -58z"/>
<path d="M21225 20054 c-413 -97 -830 -151 -1264 -162 l-255 -7 -38 -190 c-72
-363 -160 -720 -269 -1096 l-51 -176 -147 -46 c-159 -51 -265 -77 -411 -101
-231 -38 -504 -53 -715 -38 -77 6 -141 9 -142 8 0 0 -107 -1108 -237 -2461
-130 -1353 -391 -4079 -581 -6058 -190 -1978 -345 -3606 -345 -3617 0 -20 8
-20 1012 -18 l1013 3 462 2705 c254 1488 505 2959 558 3270 53 311 111 651
129 755 18 105 197 1151 397 2325 255 1493 365 2118 367 2080 1 -30 -97 -2527
-218 -5549 -121 -3021 -220 -5516 -220 -5542 l0 -49 930 0 c876 0 930 1 930
17 0 10 178 2704 395 5988 216 3283 399 6094 404 6245 6 151 13 311 16 355 l6
81 -133 -22 c-204 -35 -400 -48 -603 -41 -175 6 -417 31 -459 47 -18 6 -33 51
-98 281 -86 305 -156 582 -217 856 -23 101 -41 185 -41 188 0 9 -32 3 -175
-31z"/>
<path d="M14300 9089 c-168 -15 -357 -33 -420 -38 -112 -9 -792 -70 -1020 -91
-726 -66 -886 -82 -891 -88 -7 -8 144 -1688 153 -1697 8 -8 2711 234 2719 243
4 4 3 43 -2 87 -8 87 -10 100 -39 435 -11 124 -23 257 -27 295 -3 39 -22 252
-42 475 l-36 405 -45 1 c-25 1 -182 -11 -350 -27z"/>
<path d="M13532 6735 c-744 -67 -1355 -125 -1359 -128 -6 -7 62 -786 71 -794
5 -5 2717 235 2723 241 1 1 -13 175 -32 386 -19 212 -35 393 -35 402 0 10 -3
17 -7 17 -5 -1 -617 -56 -1361 -124z"/>
<path d="M20600 5628 c0 -18 -20 -321 -45 -673 -25 -352 -45 -648 -45 -657 0
-17 -63 -18 -1186 -18 l-1186 0 6 38 c28 162 184 1208 181 1210 -1 2 -51 -6
-109 -17 -174 -34 -373 -46 -533 -32 -157 14 -330 48 -455 90 l-85 29 -63
-197 -62 -196 -167 -59 c-539 -191 -920 -406 -1103 -621 -51 -60 -112 -166
-132 -227 -5 -17 -267 -18 -5306 -18 l-5300 0 0 -85 0 -85 26935 0 26935 0 0
85 0 85 -17839 0 -17838 0 -28 78 c-148 423 -641 749 -1298 860 -65 11 -120
22 -121 24 -2 1 3 90 11 196 8 106 13 196 10 198 -3 3 -52 -6 -109 -20 -158
-38 -267 -51 -448 -50 -184 0 -317 18 -499 65 -63 16 -116 29 -117 29 -2 0 -4
-15 -4 -32z"/>
</g>
</svg>
